<svg width="266" height="266" viewBox="0 0 266 266" fill="none" xmlns="http://www.w3.org/2000/svg">
<g filter="url(#filter0_d_94_70)">
<path d="M31.9465 79.8778H259V226.341C259 242.392 245.988 255.403 229.937 255.403H61.0094C44.9584 255.403 31.9465 242.391 31.9465 226.341V79.8778Z" fill="white"/>
<path d="M138.094 204.543H74.6326C74.7461 194.439 79.1737 184.903 87.007 178.205C93.8186 172.302 101.538 168.215 107.669 164.355C113.686 160.381 118 156.522 118 151.186C118 145.055 113.913 141.309 107.782 141.309C97.565 141.309 94.7268 148.688 94.6133 157.316H76.5625C75.4273 137.676 87.9152 124.393 107.669 124.393C123.336 124.393 137.299 132.567 137.299 149.483C137.299 164.695 126.401 170.372 114.821 177.524C108.804 181.27 105.625 183.2 100.517 188.196H138.094V204.543Z" fill="#141458"/>
<path d="M205.629 170.599H215.96V186.947H205.629V204.543H186.33V186.947H151.704V168.896L187.124 125.415H205.629V170.599ZM166.689 170.599H186.897V145.055H186.67L166.689 170.599Z" fill="#141458"/>
<path d="M229.937 28.3499C245.988 28.3499 259 41.3617 259 57.4127V82.8427H31.9465V57.4127C31.9465 41.3617 44.9584 28.3499 61.0094 28.3499H229.937ZM78.7196 46.06C74.7068 46.06 71.4538 49.313 71.4538 53.3257C71.4538 57.3385 74.7068 60.5915 78.7196 60.5915C82.7323 60.5915 85.9853 57.3385 85.9853 53.3257C85.9853 49.313 82.7323 46.06 78.7196 46.06ZM210.411 46.06C206.398 46.06 203.145 49.313 203.145 53.3257C203.145 57.3385 206.398 60.5915 210.411 60.5915C214.423 60.5915 217.676 57.3385 217.676 53.3257C217.676 49.313 214.423 46.06 210.411 46.06Z" fill="#5CD9C1"/>
<path d="M78.7195 23.8088L78.7195 51.0553M210.411 23.8088V51.0553" stroke="#141458" stroke-width="5" stroke-linecap="round"/>
<path fill-rule="evenodd" clip-rule="evenodd" d="M49.9647 43.4607L50.2512 43.2166C60.1063 34.8197 69.5224 28.307 72.2736 28.3586L75.2756 28.3512C75.0242 27.1727 73.9935 25.9369 72.128 23.8875C70.3119 21.8866 69.9766 20.24 70.9949 17.6931C73.2538 12.0581 75.1115 6.25837 77.3153 0C69.1037 1.79581 34.8488 9.26987 25.327 11.4666C24.8007 11.5897 23.7064 12.3137 23.7064 12.3137C23.6985 12.3204 22.7802 13.3112 22.5746 13.8118C18.8938 22.8642 6.07639 55.4982 3 63.3202C4.94615 62.97 6.84507 62.6398 8.71584 62.3155L19.3316 74.7747C18.8152 75.879 18.9395 77.2239 19.7719 78.2009C20.5235 79.083 21.6651 79.4455 22.7369 79.2603L22.9219 80.2485L23.7037 84.5032L30.2864 78.8946L26.2132 77.4441L25.2631 77.108C25.616 76.0791 25.4398 74.8941 24.6882 74.012C23.8558 73.0351 22.5511 72.6959 21.375 73.0336L11.7877 61.7814C15.0871 61.2019 18.2941 60.6048 21.4714 59.889C24.1478 59.2879 25.7206 59.8813 27.4078 61.9909C29.4496 64.5534 30.554 65.783 31.9404 65.9691L31.9439 63.0904C32.1099 60.5356 39.6861 52.2185 49.9647 43.4607ZM39.56 30.9584L39.5788 30.9424C46.9246 24.6644 55.1862 19.4536 64.0256 15.6C62.9236 14.0852 49.9939 17.6817 37.5731 28.3364L37.2863 28.5807C24.7947 39.1524 19.191 51.347 20.5115 52.6757C25.7198 44.5601 32.1759 37.2309 39.5411 30.9745L39.56 30.9584Z" fill="#141458"/>
</g>
<defs>
<filter id="filter0_d_94_70" x="0" y="0" width="266" height="265.403" filterUnits="userSpaceOnUse" color-interpolation-filters="sRGB">
<feFlood flood-opacity="0" result="BackgroundImageFix"/>
<feColorMatrix in="SourceAlpha" type="matrix" values="0 0 0 0 0 0 0 0 0 0 0 0 0 0 0 0 0 0 127 0" result="hardAlpha"/>
<feOffset dx="2" dy="5"/>
<feGaussianBlur stdDeviation="2.5"/>
<feComposite in2="hardAlpha" operator="out"/>
<feColorMatrix type="matrix" values="0 0 0 0 0 0 0 0 0 0 0 0 0 0 0 0 0 0 0.25 0"/>
<feBlend mode="normal" in2="BackgroundImageFix" result="effect1_dropShadow_94_70"/>
<feBlend mode="normal" in="SourceGraphic" in2="effect1_dropShadow_94_70" result="shape"/>
</filter>
</defs>
</svg>
